<svg xmlns="http://www.w3.org/2000/svg" width="800" height="520" viewBox="0 0 800 520" role="img" aria-labelledby="t d"><title id="t">Accessibility illustration</title><desc id="d">A checklist and accessible design symbols.</desc><rect width="800" height="520" fill="#121826"/><rect x="110" y="80" width="360" height="360" rx="22" fill="#263247"/><g fill="none" stroke="#8cc8ff" stroke-width="12" stroke-linecap="round" stroke-linejoin="round"><path d="M160 160l35 35 70-80"/><path d="M160 270l35 35 70-80"/><path d="M160 380l35 35 70-80"/></g><g fill="#d6ecff"><rect x="300" y="142" width="125" height="22" rx="7"/><rect x="300" y="252" width="125" height="22" rx="7"/><rect x="300" y="362" width="125" height="22" rx="7"/></g><circle cx="590" cy="155" r="50" fill="#8cc8ff"/><path d="M590 220v150M520 260h140M560 370l-35 70M620 370l35 70" stroke="#e0e7ff" stroke-width="18" stroke-linecap="round"/><circle cx="590" cy="130" r="16" fill="#121826"/></svg>